<?xml version="1.0" encoding="UTF-8"?><svg id="Layer_3" xmlns="http://www.w3.org/2000/svg" width="3000" height="3000" viewBox="0 0 998 998"><g id="MainIcon"><g><path d="M996.58,499H499V1.02c274.81,0,497.58,222.96,497.58,497.98Z" fill="#380a2f"/><path d="M499,499h497.58c0,275.03-222.78,497.98-497.58,497.98V499Z" fill="#b00088"/><path d="M499,499v497.98C224.19,996.98,1.42,774.03,1.42,499H499Z" fill="#f0f"/><path d="M499,1.02V499H1.42C1.42,223.97,224.19,1.02,499,1.02Z" fill="#964fb1"/></g></g><g id="_1Ring"><path d="M499,119c51.31,0,101.07,10.04,147.91,29.85,45.25,19.14,85.89,46.54,120.79,81.45,34.9,34.91,62.31,75.55,81.45,120.79,19.81,46.84,29.85,96.6,29.85,147.91s-10.04,101.07-29.85,147.91c-19.14,45.25-46.54,85.89-81.45,120.79-34.91,34.9-75.55,62.31-120.79,81.45-46.84,19.81-96.6,29.85-147.91,29.85s-101.07-10.04-147.91-29.85c-45.25-19.14-85.89-46.54-120.79-81.45-34.9-34.91-62.31-75.55-81.45-120.79-19.81-46.84-29.85-96.6-29.85-147.91s10.04-101.07,29.85-147.91c19.14-45.25,46.54-85.89,81.45-120.79,34.91-34.9,75.55-62.31,120.79-81.45,46.84-19.81,96.6-29.85,147.91-29.85m0-20c-220.91,0-400,179.09-400,400s179.09,400,400,400,400-179.09,400-400S719.91,99,499,99h0Z" fill="#86007d"/></g><g id="_2Ring"><path d="M499,99c54.01,0,106.39,10.57,155.69,31.43,47.63,20.15,90.41,48.99,127.15,85.73,36.74,36.74,65.59,79.52,85.73,127.15,20.85,49.3,31.43,101.68,31.43,155.69s-10.57,106.39-31.43,155.69c-20.15,47.63-48.99,90.41-85.73,127.15-36.74,36.74-79.52,65.59-127.15,85.73-49.3,20.85-101.68,31.43-155.69,31.43s-106.39-10.57-155.69-31.43c-47.63-20.15-90.41-48.99-127.15-85.73-36.74-36.74-65.59-79.52-85.73-127.15-20.85-49.3-31.43-101.68-31.43-155.69s10.57-106.39,31.43-155.69c20.15-47.63,48.99-90.41,85.73-127.15,36.74-36.74,79.52-65.59,127.15-85.73,49.3-20.85,101.68-31.43,155.69-31.43m0-20c-231.96,0-420,188.04-420,420s188.04,420,420,420,420-188.04,420-420S730.96,79,499,79h0Z" fill="#0000f9"/></g><g id="_3Ring"><path d="M499,79c56.71,0,111.71,11.1,163.48,33,50.01,21.15,94.93,51.44,133.51,90.02,38.58,38.58,68.86,83.5,90.02,133.51,21.9,51.77,33,106.77,33,163.48s-11.1,111.71-33,163.48c-21.15,50.01-51.44,94.93-90.02,133.51-38.58,38.58-83.5,68.86-133.51,90.02-51.77,21.9-106.77,33-163.48,33s-111.71-11.1-163.48-33c-50.01-21.15-94.93-51.44-133.51-90.02-38.58-38.58-68.86-83.5-90.02-133.51-21.9-51.77-33-106.77-33-163.48s11.1-111.71,33-163.48c21.15-50.01,51.44-94.93,90.02-133.51s83.5-68.86,133.51-90.02c51.77-21.9,106.77-33,163.48-33m0-20C255.99,59,59,255.99,59,499s196.99,440,440,440,440-196.99,440-440S742.01,59,499,59h0Z" fill="#008018"/></g><g id="_4Ring"><path d="M499,59c59.41,0,117.03,11.63,171.26,34.57,52.39,22.16,99.45,53.89,139.87,94.3s72.14,87.47,94.3,139.87c22.94,54.23,34.57,111.85,34.57,171.26s-11.63,117.03-34.57,171.26c-22.16,52.39-53.89,99.45-94.3,139.87s-87.47,72.14-139.87,94.3c-54.23,22.94-111.85,34.57-171.26,34.57s-117.03-11.63-171.26-34.57c-52.39-22.16-99.45-53.89-139.87-94.3s-72.14-87.47-94.3-139.87c-22.94-54.23-34.57-111.85-34.57-171.26s11.63-117.03,34.57-171.26c22.16-52.39,53.89-99.45,94.3-139.87s87.47-72.14,139.87-94.3c54.23-22.94,111.85-34.57,171.26-34.57m0-20C244.95,39,39,244.95,39,499s205.95,460,460,460,460-205.95,460-460S753.05,39,499,39h0Z" fill="#ffff41"/></g><g id="_5Ring"><path d="M499,39c62.11,0,122.35,12.16,179.05,36.14,54.77,23.17,103.97,56.34,146.22,98.59,42.25,42.25,75.42,91.45,98.59,146.22,23.98,56.7,36.14,116.94,36.14,179.05s-12.16,122.35-36.14,179.05c-23.17,54.77-56.34,103.97-98.59,146.22-42.25,42.25-91.45,75.42-146.22,98.59-56.7,23.98-116.94,36.14-179.05,36.14s-122.35-12.16-179.05-36.14c-54.77-23.17-103.97-56.34-146.22-98.59-42.25-42.25-75.42-91.45-98.59-146.22-23.98-56.7-36.14-116.94-36.14-179.05s12.16-122.35,36.14-179.05c23.17-54.77,56.34-103.97,98.59-146.22,42.25-42.25,91.45-75.42,146.22-98.59,56.7-23.98,116.94-36.14,179.05-36.14m0-20C233.9,19,19,233.9,19,499s214.9,480,480,480,480-214.9,480-480S764.1,19,499,19h0Z" fill="#ffa52c"/></g><g id="_6Ring"><path d="M499,21c64.54,0,127.14,12.64,186.05,37.56,56.92,24.07,108.04,58.54,151.94,102.45,43.91,43.91,78.37,95.03,102.45,151.94,24.92,58.92,37.56,121.51,37.56,186.05s-12.64,127.14-37.56,186.05c-24.07,56.92-58.54,108.04-102.45,151.94-43.91,43.91-95.03,78.37-151.94,102.45-58.92,24.92-121.51,37.56-186.05,37.56s-127.14-12.64-186.05-37.56c-56.92-24.07-108.04-58.54-151.94-102.45-43.91-43.91-78.37-95.03-102.45-151.94-24.92-58.92-37.56-121.51-37.56-186.05s12.64-127.14,37.56-186.05c24.07-56.92,58.54-108.04,102.45-151.94,43.91-43.91,95.03-78.37,151.94-102.45,58.92-24.92,121.51-37.56,186.05-37.56m0-20C223.96,1,1,223.96,1,499s222.96,498,498,498,498-222.96,498-498S774.04,1,499,1h0Z" fill="#ff0018"/></g><line id="_7Ring" y1="499" x2="998" y2="499" fill="none" stroke="#fff" stroke-miterlimit="10" stroke-width="80"/><line id="_8Ring" x1="499" y1="998" x2="499" fill="none" stroke="#fff" stroke-miterlimit="10" stroke-width="80"/></svg>